<?xml version="1.0" encoding="iso-8859-1"?>
<!-- Generator: Adobe Illustrator 16.0.0, SVG Export Plug-In . SVG Version: 6.00 Build 0)  -->
<!DOCTYPE svg PUBLIC "-//W3C//DTD SVG 1.1//EN" "http://www.w3.org/Graphics/SVG/1.1/DTD/svg11.dtd">
<svg version="1.1" id="Capa_1" xmlns="http://www.w3.org/2000/svg" xmlns:xlink="http://www.w3.org/1999/xlink" x="0px" y="0px"
	 width="39.884px" height="39.884px" viewBox="0 0 39.884 39.884" style="enable-background:new 0 0 39.884 39.884;"
	 xml:space="preserve">
<g>
	<path d="M34.565,18.978c0.542-0.417,0.875-1,1.25-2.209c0.375-1.208,0.917-5.458,0.583-7.166c-0.333-1.709-3.708-8.25-11.167-9.292
		c-7.458-1.042-13.583,0.75-16.083,2.25s-6.042,5.5-5.75,9.667c0.292,4.166,6.292,7.166,6.583,7.208c0,0-1.458,3.417-2,6.417
		s-0.625,6.791,0.833,9.666s5.958,4.084,9.958,4.292c4,0.208,8.708,0.042,12.792-1.375c4.083-1.417,4.833-7.542,4.792-9.375
		c-0.042-1.833-2.833-8.792-3-9.083C33.19,19.686,34.023,19.394,34.565,18.978z M21.148,2.728c0.708-0.042,1.042,0,2.25,0.416
		c1.208,0.417,0.792,1.334,0.125,1.834s-0.625,0.291-0.625,0.125c0-0.167-0.333-0.167-1.167-0.125
		c-0.833,0.041-2.125,0.166-3.375-0.5C17.107,3.811,20.064,2.791,21.148,2.728z M33.44,33.644c-0.917,1.75-1.667,2.875-3.875,3.417
		s-6.917,0.792-10.5,0.75c-3.583-0.042-7.625-0.583-8.875-4.25s-0.583-6.083,0.125-9.167c0.708-3.083,1.875-7.291,3.167-8.083
		s5.167-1.708,7.458-1.25c2.292,0.458,6.417,2.208,6.833,1.667c0.417-0.542,0.792-0.792,0.042-1.25
		c-0.75-0.459-5.125-1.584-6.75-1.667c-1.625-0.083-4.125,0.167-5.5,0.5s-2.833,0.792-3.792,1.75
		c-0.958,0.958-1.042,1.542-1.458,1.458c-0.327-0.065-1.958-1.375-2.833-2.041c-0.875-0.667-2.667-2.209-0.583-3.125
		c2.083-0.917,5.708-1.667,11.875-1.459c6.167,0.209,12.167,1.875,13.75,3.209c1.583,1.333,1.792,2.166,1.417,2.75
		c-0.375,0.583-1.167,1.541-1.333,1.041c-0.167-0.5-0.875-1.75-1.583-1.333s-0.708,1.375,0,3.083
		c0.708,1.709,2.708,6.625,3.167,8.625C34.648,30.269,34.357,31.894,33.44,33.644z M9.138,13.549
		c-0.125-0.406-0.438-0.375-1.031-0.312c-0.278,0.029-0.406,0.438,0.094,0.656C8.701,14.111,9.263,13.956,9.138,13.549z
		 M9.482,14.519c-0.31-0.051-0.688,0.344-0.312,0.625c0.376,0.281,0.593,0.156,0.843-0.094S9.857,14.581,9.482,14.519z
		 M11.232,13.706c-0.424-0.028-0.688,0.781-0.25,0.906s0.875-0.188,0.969-0.438C12.045,13.923,11.7,13.736,11.232,13.706z
		 M11.825,12.894c0.156-0.25-0.156-0.5-0.531-0.5c-0.406,0-1.125,0.531-0.469,0.719C11.481,13.3,11.669,13.144,11.825,12.894z
		 M13.607,12.549c0.562,0.188,1.188,0.094,1.031-0.188c-0.157-0.282-0.125-0.438-0.75-0.438
		C13.669,11.924,13.044,12.361,13.607,12.549z M13.794,13.236c-0.436-0.072-0.781,0.719-0.094,0.812
		c0.687,0.093,1.156-0.312,1-0.562C14.544,13.236,14.169,13.299,13.794,13.236z M17.075,11.861c-0.228,0.011-0.688,0.531,0,0.719
		s0.906-0.281,0.781-0.406S17.763,11.831,17.075,11.861z M17.138,13.049c-0.337-0.067-0.781,0.312-0.281,0.438
		c0.5,0.126,0.938,0.062,1-0.125S17.45,13.111,17.138,13.049z M20.107,11.986c-0.689-0.043-0.875,0.469-0.344,0.719
		c0.531,0.25,1,0.031,1-0.25C20.763,12.174,20.607,12.019,20.107,11.986z M23.263,12.581c-0.527-0.062-0.562,0.5-0.031,0.719
		c0.531,0.219,0.75,0,0.781-0.281C24.044,12.737,24.044,12.674,23.263,12.581z M28.357,13.236c-0.281-0.281-0.469-0.188-0.938-0.281
		c-0.337-0.067-0.75,0.719,0.03,0.969C28.231,14.174,28.638,13.519,28.357,13.236z M29.107,15.831c0.688,0.312,1.156,0.062,1-0.344
		c-0.156-0.406-0.281-0.344-0.688-0.406C29.028,15.021,28.419,15.519,29.107,15.831z M30.794,15.519
		c0.594,0.312,0.78-0.125,0.844-0.344c0.062-0.219-0.219-0.625-0.562-0.656C30.569,14.473,30.2,15.206,30.794,15.519z
		 M28.107,20.705c-0.507-0.16-0.562,2.156,0.062,3.844c0.624,1.688,2.625,6.312,1.655,7.406c-0.969,1.094-1.75,1.312-1.375,1.812
		s2.345-0.469,2.688-1.75s-0.281-3.062-1.156-5.781S28.7,20.894,28.107,20.705z"/>
</g>
<g>
</g>
<g>
</g>
<g>
</g>
<g>
</g>
<g>
</g>
<g>
</g>
<g>
</g>
<g>
</g>
<g>
</g>
<g>
</g>
<g>
</g>
<g>
</g>
<g>
</g>
<g>
</g>
<g>
</g>
</svg>
